<svg width="221" height="221" viewBox="0 0 221 221" fill="none" xmlns="http://www.w3.org/2000/svg">
<rect width="221" height="221" fill="white"/>
<path d="M25.9844 77.6094C30.2031 77.8594 33.875 78.0469 37 78.1719C40.1562 78.2969 42.9375 78.3594 45.3438 78.3594C47.125 78.3594 49.4375 78.2969 52.2812 78.1719C55.125 78.0469 58.8594 77.8594 63.4844 77.6094V83.3281H62.2656C60.0469 83.3281 58.4688 83.5625 57.5312 84.0312C56.5938 84.5 55.9219 85.3281 55.5156 86.5156C55.1406 87.5781 54.875 89.7031 54.7188 92.8906C54.5625 96.0469 54.4844 101.125 54.4844 108.125V113.797C54.4844 115.516 54.4688 117.734 54.4375 120.453C54.4062 123.141 54.3906 124.984 54.3906 125.984C54.3906 129.109 54.4844 131.438 54.6719 132.969C54.8594 134.5 55.1719 135.656 55.6094 136.438C56.0469 137.25 56.8125 137.844 57.9062 138.219C59 138.562 60.6719 138.734 62.9219 138.734H64.1875V144.5C60.3438 144.25 56.7188 144.062 53.3125 143.938C49.9062 143.812 46.9062 143.75 44.3125 143.75C42.375 143.75 39.8906 143.812 36.8594 143.938C33.8594 144.031 29.9688 144.219 25.1875 144.5V138.734H26.7344C29.0781 138.734 30.7656 138.578 31.7969 138.266C32.8281 137.922 33.5469 137.344 33.9531 136.531C34.7969 134.812 35.2656 128.375 35.3594 117.219C35.3594 115.812 35.3594 114.734 35.3594 113.984V108.312C35.3594 106.781 35.375 104.766 35.4062 102.266C35.4375 99.7656 35.4531 98.0312 35.4531 97.0625C35.4531 93.5938 35.3438 91.0469 35.125 89.4219C34.9375 87.7656 34.6094 86.5156 34.1406 85.6719C33.6719 84.8281 32.9375 84.2344 31.9375 83.8906C30.9688 83.5156 29.5469 83.3281 27.6719 83.3281H25.9844V77.6094ZM102.203 115.016C103.516 113.953 104.5 112.812 105.156 111.594C105.812 110.375 106.141 109.062 106.141 107.656C106.141 105.281 105.328 103.438 103.703 102.125C102.078 100.812 99.8125 100.156 96.9062 100.156C96.4688 100.156 95.8281 100.188 94.9844 100.25C94.1406 100.312 93.25 100.406 92.3125 100.531C92.3125 101.594 92.2969 103.062 92.2656 104.938C92.2344 106.781 92.2188 108.094 92.2188 108.875C92.2188 109.719 92.2344 110.844 92.2656 112.25C92.2969 113.656 92.3125 114.641 92.3125 115.203H94.8906C96.4531 115.203 98.7969 115.141 101.922 115.016H102.203ZM92.3125 137.094C93.3125 137.438 94.3125 137.688 95.3125 137.844C96.3438 138 97.3906 138.078 98.4531 138.078C101.391 138.078 103.734 137.312 105.484 135.781C107.266 134.25 108.156 132.234 108.156 129.734C108.156 127.016 107.172 124.891 105.203 123.359C103.266 121.828 100.562 121.062 97.0938 121.062C96.4062 121.062 95.1719 121.109 93.3906 121.203C92.9219 121.234 92.5625 121.25 92.3125 121.25V130.953V137.094ZM108.719 117.312C113.75 117.906 117.531 119.281 120.062 121.438C122.625 123.594 123.906 126.516 123.906 130.203C123.906 134.609 121.641 138.141 117.109 140.797C112.609 143.453 106.484 144.781 98.7344 144.781C97.5469 144.781 95.0625 144.672 91.2812 144.453C87.5 144.234 84.3281 144.125 81.7656 144.125C81.0469 144.125 79.375 144.172 76.75 144.266C74.1562 144.359 72.0781 144.422 70.5156 144.453V140.094C70.7656 140.125 71 140.156 71.2188 140.188C71.4688 140.188 71.8125 140.188 72.25 140.188C74.375 140.188 75.7969 139.562 76.5156 138.312C77.2656 137.062 77.6406 133.906 77.6406 128.844V126.078V123.453V116.188C77.6406 116.125 77.6406 115.969 77.6406 115.719C77.7031 114.594 77.7344 113.531 77.7344 112.531V104.656C77.7344 102.031 77.3281 100.25 76.5156 99.3125C75.7344 98.3438 74.3125 97.8594 72.25 97.8594C72.0938 97.8594 71.8438 97.875 71.5 97.9062C71.1875 97.9375 70.9531 97.9531 70.7969 97.9531V93.5469C72.7344 93.6719 74.75 93.7656 76.8438 93.8281C78.9375 93.8906 81.1406 93.9219 83.4531 93.9219C85.9844 93.9219 89.2344 93.8281 93.2031 93.6406C97.2031 93.4219 99.9062 93.3125 101.312 93.3125C107.312 93.3125 112.047 94.3906 115.516 96.5469C118.984 98.7031 120.719 101.594 120.719 105.219C120.719 107.969 119.688 110.391 117.625 112.484C115.594 114.547 112.625 116.156 108.719 117.312ZM146.688 110.328C146.625 112.109 146.578 114.062 146.547 116.188C146.516 118.312 146.5 121.484 146.5 125.703V129.547C146.5 134.266 146.891 137.219 147.672 138.406C148.484 139.594 150.078 140.188 152.453 140.188C153.047 140.188 153.484 140.188 153.766 140.188C154.078 140.156 154.375 140.125 154.656 140.094V144.5C151.625 144.344 149.094 144.234 147.062 144.172C145.062 144.078 143.344 144.031 141.906 144.031C140.781 144.031 139.344 144.062 137.594 144.125C135.875 144.188 133.406 144.312 130.188 144.5V140.094C130.469 140.125 130.75 140.156 131.031 140.188C131.344 140.188 131.766 140.188 132.297 140.188C136.109 140.156 138.094 135.406 138.25 125.938C138.281 123.656 138.312 121.875 138.344 120.594L138.438 116.188C138.469 115.281 138.484 114.109 138.484 112.672C138.516 111.203 138.531 108.469 138.531 104.469C138.531 101.812 138.109 100.031 137.266 99.125C136.422 98.2188 134.797 97.7656 132.391 97.7656C132.203 97.7656 131.891 97.7812 131.453 97.8125C131.016 97.8438 130.656 97.8594 130.375 97.8594V93.4531C133.125 93.6094 135.453 93.7344 137.359 93.8281C139.297 93.8906 140.969 93.9219 142.375 93.9219C143.531 93.9219 145 93.8906 146.781 93.8281C148.562 93.7344 150.938 93.5938 153.906 93.4062C154.344 95.1875 156.062 97.75 159.062 101.094L159.203 101.234L180.109 124.812C180.109 124 180.125 121.781 180.156 118.156C180.188 114.5 180.203 111.25 180.203 108.406V107.141C180.203 102.859 179.812 100.234 179.031 99.2656C178.25 98.2656 176.719 97.7656 174.438 97.7656C174.281 97.7656 174.016 97.7812 173.641 97.8125C173.297 97.8438 173.016 97.8594 172.797 97.8594V93.4531C174.797 93.6094 176.75 93.7344 178.656 93.8281C180.594 93.8906 182.453 93.9219 184.234 93.9219C185.953 93.9219 187.75 93.8906 189.625 93.8281C191.531 93.7344 193.516 93.6094 195.578 93.4531V97.8125C195.359 97.8125 195.109 97.8125 194.828 97.8125C194.578 97.7812 194.25 97.7656 193.844 97.7656C190.25 97.7656 188.438 102.578 188.406 112.203C188.406 114.578 188.391 116.453 188.359 117.828V122.609C188.328 124.672 188.297 127.391 188.266 130.766C188.203 135.516 188.172 138.531 188.172 139.812C188.172 140.562 188.203 141.359 188.266 142.203C188.328 143.016 188.422 143.875 188.547 144.781H176.734C176.234 143.688 174.969 141.953 172.938 139.578L172.703 139.297L146.688 110.328Z" fill="#1E262E"/>
</svg>
